<svg xmlns="http://www.w3.org/2000/svg" viewBox="0 0 29.57 38.85"><defs><style>.cls-1{fill:none;stroke:#000;stroke-miterlimit:10;}</style></defs><g id="Layer_2" data-name="Layer 2"><g id="Layer_1-2" data-name="Layer 1"><path class="cls-1" d="M2.41,8.49.5,34.73a3.8,3.8,0,0,0,1.16,2.59,3.84,3.84,0,0,0,2.65,1H25.54a3.36,3.36,0,0,0,2.71-1,3.22,3.22,0,0,0,.82-2.14l-2-26.73Z"/><path d="M17.54,16.78s0,.1,0,.14v3.64A1.63,1.63,0,0,1,15.82,22h-.1c0,.3,0,.6.06.93,0,.53.07,1.06.13,1.59.07.8.14,1.62.2,2.42,0,.56.1,1.16.14,1.72.06.83.13,1.63.19,2.45a1.15,1.15,0,0,1-1,1.13,1.57,1.57,0,0,1-1.89-.8,1.35,1.35,0,0,1,0-.53c.06-.86.13-1.75.2-2.61.06-1,.16-2,.23-3.05.06-.86.13-1.75.2-2.62a5.3,5.3,0,0,1,.06-.63c-.16,0-.3,0-.43-.06a1.51,1.51,0,0,1-1.46-1.36V16.62a.33.33,0,0,1,.37-.33.32.32,0,0,1,.36.33v3.94c0,.53.47.89,1.16.89h1.46c.7,0,1.16-.36,1.16-.89V16.65c0-.1,0-.23.16-.26C17.17,16.52,17.37,16.65,17.54,16.78Z"/><path d="M17.53,16.83c-.2-.13-.36-.29-.56-.43.17-.13.5-.1.56.1A.91.91,0,0,1,17.53,16.83Z"/><path d="M16,20.3a1.88,1.88,0,0,1-.7-.6,1.51,1.51,0,0,1-.16-.93,3.51,3.51,0,0,1,.33-.83,2.16,2.16,0,0,0,.16-.59,1.61,1.61,0,0,0-.13-.8.62.62,0,0,1-.07-.26.2.2,0,0,0,.14.06,1.58,1.58,0,0,1,.66,1,1.66,1.66,0,0,1-.1.79c-.07.2-.17.43-.26.63a1.23,1.23,0,0,0,0,1.23A1.94,1.94,0,0,1,16,20.3Z"/><path d="M14.52,20.3a1.85,1.85,0,0,1-.69-.6,1.19,1.19,0,0,1-.17-.93,6.76,6.76,0,0,1,.3-.83,1.88,1.88,0,0,0,.17-.59,1.74,1.74,0,0,0-.14-.8,1.16,1.16,0,0,0-.06-.26.16.16,0,0,0,.13.06,1.54,1.54,0,0,1,.63,1,1.66,1.66,0,0,1-.1.79,5.28,5.28,0,0,1-.27.6A1.34,1.34,0,0,0,14.39,20,1.3,1.3,0,0,0,14.52,20.3Z"/><path class="cls-1" d="M8.05,12.06C7.38,5.29,12,.36,15.81.5s7.87,5.14,7.09,11.63"/></g></g></svg>